{
  "accessors": [
    {
      "bufferView": 2,
      "componentType": 5126,
      "count": 1440,
      "max": [
        16.418941497802734,
        22.157520294189453,
        18.608131408691406
      ],
      "min": [
        -16.418941497802734,
        -0.26740646362304688,
        -5.7220458984375e-06
      ],
      "type": "VEC3"
    },
    {
      "bufferView": 2,
      "byteOffset": 17280,
      "componentType": 5126,
      "count": 1440,
      "max": [
        0.99757510423660278,
        1,
        0.9975617527961731
      ],
      "min": [
        -0.99757510423660278,
        -1,
        -0.9975617527961731
      ],
      "type": "VEC3"
    },
    {
      "bufferView": 3,
      "componentType": 5126,
      "count": 1440,
      "max": [
        1,
        1,
        0.8973468542098999,
        1
      ],
      "min": [
        -1,
        -1,
        -1,
        -1
      ],
      "type": "VEC4"
    },
    {
      "bufferView": 1,
      "componentType": 5126,
      "count": 1440,
      "max": [
        0.99754863977432251,
        0.99606716632843018
      ],
      "min": [
        0.0025349622592329979,
        0.0026391735300421715
      ],
      "type": "VEC2"
    },
    {
      "bufferView": 0,
      "componentType": 5125,
      "count": 1518,
      "max": [
        1439
      ],
      "min": [
        0
      ],
      "type": "SCALAR"
    },
    {
      "bufferView": 2,
      "byteOffset": 34560,
      "componentType": 5126,
      "count": 16449,
      "max": [
        15.518182754516602,
        0.24426651000976562,
        17.808685302734375
      ],
      "min": [
        -15.51817512512207,
        -2.1466445922851562,
        1.2721662521362305
      ],
      "type": "VEC3"
    },
    {
      "bufferView": 2,
      "byteOffset": 231948,
      "componentType": 5126,
      "count": 16449,
      "max": [
        1,
        0.00024983155890367925,
        1
      ],
      "min": [
        -1,
        -1,
        -1
      ],
      "type": "VEC3"
    },
    {
      "bufferView": 3,
      "byteOffset": 23040,
      "componentType": 5126,
      "count": 16449,
      "max": [
        1,
        1,
        1,
        1
      ],
      "min": [
        -1,
        -1,
        -1,
        -1
      ],
      "type": "VEC4"
    },
    {
      "bufferView": 1,
      "byteOffset": 11520,
      "componentType": 5126,
      "count": 16449,
      "max": [
        0.99790269136428833,
        0.99799996614456177
      ],
      "min": [
        0.0020000000949949026,
        0.0020000000949949026
      ],
      "type": "VEC2"
    },
    {
      "bufferView": 0,
      "byteOffset": 6072,
      "componentType": 5125,
      "count": 16839,
      "max": [
        16448
      ],
      "min": [
        0
      ],
      "type": "SCALAR"
    },
    {
      "bufferView": 2,
      "byteOffset": 429336,
      "componentType": 5126,
      "count": 210,
      "max": [
        7.1160087585449219,
        -0.37992668151855469,
        16.990379333496094
      ],
      "min": [
        -12.119939804077148,
        -2.1457939147949219,
        13.791439056396484
      ],
      "type": "VEC3"
    },
    {
      "bufferView": 2,
      "byteOffset": 431856,
      "componentType": 5126,
      "count": 210,
      "max": [
        0.37104487419128418,
        -0.92858326435089111,
        0.35287907719612122
      ],
      "min": [
        -0.37104436755180359,
        -1,
        -0.35287982225418091
      ],
      "type": "VEC3"
    },
    {
      "bufferView": 1,
      "byteOffset": 143112,
      "componentType": 5126,
      "count": 210,
      "max": [
        0.74412596225738525,
        0.99799996614456177
      ],
      "min": [
        0.0020000000949949026,
        0.0020000000949949026
      ],
      "type": "VEC2"
    },
    {
      "bufferView": 0,
      "byteOffset": 73428,
      "componentType": 5125,
      "count": 210,
      "max": [
        209
      ],
      "min": [
        0
      ],
      "type": "SCALAR"
    }
  ],
  "asset": {
    "extras": {
      "author": "Lyskilde (https://sketchfab.com/longtail)",
      "license": "CC-BY-4.0 (http://creativecommons.org/licenses/by/4.0/)",
      "source": "https://sketchfab.com/3d-models/rbm-radio-station-ussr-c932a023509848a0ad284abdc2b1e047",
      "title": "RBM. Radio station (USSR)"
    },
    "generator": "Sketchfab-8.61.0",
    "version": "2.0"
  },
  "bufferViews": [
    {
      "buffer": 0,
      "byteLength": 74268,
      "byteOffset": 0,
      "name": "floatBufferViews",
      "target": 34963
    },
    {
      "buffer": 0,
      "byteLength": 144792,
      "byteOffset": 74268,
      "byteStride": 8,
      "name": "floatBufferViews",
      "target": 34962
    },
    {
      "buffer": 0,
      "byteLength": 434376,
      "byteOffset": 219060,
      "byteStride": 12,
      "name": "floatBufferViews",
      "target": 34962
    },
    {
      "buffer": 0,
      "byteLength": 286224,
      "byteOffset": 653436,
      "byteStride": 16,
      "name": "floatBufferViews",
      "target": 34962
    }
  ],
  "buffers": [
    {
      "byteLength": 939660,
      "uri": "scene.bin"
    }
  ],
  "images": [
    {
      "uri": "textures/BoxRBM_baseColor.png"
    },
    {
      "uri": "textures/BoxRBM_metallicRoughness.png"
    },
    {
      "uri": "textures/BoxRBM_normal.png"
    },
    {
      "uri": "textures/DetailsRBM_baseColor.png"
    },
    {
      "uri": "textures/DetailsRBM_metallicRoughness.png"
    },
    {
      "uri": "textures/DetailsRBM_normal.png"
    }
  ],
  "materials": [
    {
      "doubleSided": false,
      "name": "BoxRBM",
      "normalTexture": {
        "index": 2,
        "scale": 1,
        "texCoord": 0
      },
      "occlusionTexture": {
        "index": 1,
        "strength": 1,
        "texCoord": 0
      },
      "pbrMetallicRoughness": {
        "baseColorFactor": [
          1,
          1,
          1,
          1
        ],
        "baseColorTexture": {
          "index": 0,
          "texCoord": 0
        },
        "metallicFactor": 1,
        "metallicRoughnessTexture": {
          "index": 1,
          "texCoord": 0
        },
        "roughnessFactor": 1
      }
    },
    {
      "doubleSided": false,
      "name": "DetailsRBM",
      "normalTexture": {
        "index": 5,
        "scale": 1,
        "texCoord": 0
      },
      "occlusionTexture": {
        "index": 4,
        "strength": 1,
        "texCoord": 0
      },
      "pbrMetallicRoughness": {
        "baseColorFactor": [
          1,
          1,
          1,
          1
        ],
        "baseColorTexture": {
          "index": 3,
          "texCoord": 0
        },
        "metallicFactor": 1,
        "metallicRoughnessTexture": {
          "index": 4,
          "texCoord": 0
        },
        "roughnessFactor": 1
      }
    },
    {
      "alphaMode": "BLEND",
      "doubleSided": false,
      "name": "GlassRBM",
      "pbrMetallicRoughness": {
        "baseColorFactor": [
          1,
          1,
          1,
          0
        ],
        "metallicFactor": 1,
        "roughnessFactor": 0.34093934978112611
      }
    }
  ],
  "meshes": [
    {
      "name": "RB_M_BoxRBM_0",
      "primitives": [
        {
          "attributes": {
            "NORMAL": 1,
            "POSITION": 0,
            "TANGENT": 2,
            "TEXCOORD_0": 3
          },
          "indices": 4,
          "material": 0,
          "mode": 4
        }
      ]
    },
    {
      "name": "RB_M_DetailsRBM_0",
      "primitives": [
        {
          "attributes": {
            "NORMAL": 6,
            "POSITION": 5,
            "TANGENT": 7,
            "TEXCOORD_0": 8
          },
          "indices": 9,
          "material": 1,
          "mode": 4
        }
      ]
    },
    {
      "name": "RB_M_GlassRBM_0",
      "primitives": [
        {
          "attributes": {
            "NORMAL": 11,
            "POSITION": 10,
            "TEXCOORD_0": 12
          },
          "indices": 13,
          "material": 2,
          "mode": 4
        }
      ]
    }
  ],
  "nodes": [
    {
      "children": [
        1
      ],
      "name": "RootNode (gltf orientation matrix)",
      "rotation": [
        -0.70710678118654746,
        -0,
        -0,
        0.70710678118654757
      ]
    },
    {
      "children": [
        2
      ],
      "name": "RootNode (model correction matrix)"
    },
    {
      "children": [
        3
      ],
      "matrix": [
        1,
        0,
        0,
        0,
        0,
        0,
        1,
        0,
        0,
        -1,
        0,
        0,
        0,
        0,
        0,
        1
      ],
      "name": "a19fabe4120e49859bf92eef34757e01.fbx"
    },
    {
      "children": [
        4
      ],
      "name": "RootNode"
    },
    {
      "children": [
        5,
        6,
        7
      ],
      "matrix": [
        1,
        0,
        0,
        0,
        0,
        -1.6292067939183141e-07,
        -0.99999999999998679,
        0,
        0,
        0.99999999999998679,
        -1.6292067939183141e-07,
        0,
        0,
        0,
        0,
        1
      ],
      "name": "RB_M"
    },
    {
      "mesh": 0,
      "name": "RB_M_BoxRBM_0"
    },
    {
      "mesh": 1,
      "name": "RB_M_DetailsRBM_0"
    },
    {
      "mesh": 2,
      "name": "RB_M_GlassRBM_0"
    }
  ],
  "samplers": [
    {
      "magFilter": 9729,
      "minFilter": 9987,
      "wrapS": 10497,
      "wrapT": 10497
    }
  ],
  "scene": 0,
  "scenes": [
    {
      "name": "OSG_Scene",
      "nodes": [
        0
      ]
    }
  ],
  "textures": [
    {
      "sampler": 0,
      "source": 0
    },
    {
      "sampler": 0,
      "source": 1
    },
    {
      "sampler": 0,
      "source": 2
    },
    {
      "sampler": 0,
      "source": 3
    },
    {
      "sampler": 0,
      "source": 4
    },
    {
      "sampler": 0,
      "source": 5
    }
  ]
}

