{
  "accessors": [
    {
      "bufferView": 2,
      "componentType": 5126,
      "count": 2401,
      "max": [
        0.074253000319004059,
        0.083761997520923615,
        1.4528239965438843
      ],
      "min": [
        -0.073889002203941345,
        -0.10806000232696533,
        1.3191280364990234
      ],
      "type": "VEC3"
    },
    {
      "bufferView": 2,
      "byteOffset": 28812,
      "componentType": 5126,
      "count": 2401,
      "max": [
        0.99860739707946777,
        0.99420034885406494,
        0.99956673383712769
      ],
      "min": [
        -0.99860227108001709,
        -0.9977869987487793,
        -0.99844974279403687
      ],
      "type": "VEC3"
    },
    {
      "bufferView": 3,
      "componentType": 5126,
      "count": 2401,
      "max": [
        0.99997729063034058,
        0.99972379207611084,
        0.96537524461746216,
        1
      ],
      "min": [
        -0.99786967039108276,
        -0.99962067604064941,
        -0.98421353101730347,
        1
      ],
      "type": "VEC4"
    },
    {
      "bufferView": 1,
      "componentType": 5126,
      "count": 2401,
      "max": [
        0.9785199761390686,
        0.99975299835205078
      ],
      "min": [
        0.025495000183582306,
        0.003014999907463789
      ],
      "type": "VEC2"
    },
    {
      "bufferView": 0,
      "componentType": 5125,
      "count": 10512,
      "max": [
        2400
      ],
      "min": [
        0
      ],
      "type": "SCALAR"
    }
  ],
  "asset": {
    "extras": {
      "author": "Heledahn (https://sketchfab.com/heledahn)",
      "license": "CC-BY-4.0 (http://creativecommons.org/licenses/by/4.0/)",
      "source": "https://sketchfab.com/3d-models/silver-locket-necklace-faa03daeacf741d59c3d2de3e3e4ea6e",
      "title": "Silver Locket Necklace"
    },
    "generator": "Sketchfab-8.37.0",
    "version": "2.0"
  },
  "bufferViews": [
    {
      "buffer": 0,
      "byteLength": 42048,
      "byteOffset": 0,
      "name": "floatBufferViews",
      "target": 34963
    },
    {
      "buffer": 0,
      "byteLength": 19208,
      "byteOffset": 42048,
      "byteStride": 8,
      "name": "floatBufferViews",
      "target": 34962
    },
    {
      "buffer": 0,
      "byteLength": 57624,
      "byteOffset": 61256,
      "byteStride": 12,
      "name": "floatBufferViews",
      "target": 34962
    },
    {
      "buffer": 0,
      "byteLength": 38416,
      "byteOffset": 118880,
      "byteStride": 16,
      "name": "floatBufferViews",
      "target": 34962
    }
  ],
  "buffers": [
    {
      "byteLength": 157296,
      "uri": "scene.bin"
    }
  ],
  "images": [
    {
      "uri": "textures/SMS_Medieval_SIlver_Locket_Material_baseColor.png"
    },
    {
      "uri": "textures/SMS_Medieval_SIlver_Locket_Material_metallicRoughness.png"
    },
    {
      "uri": "textures/SMS_Medieval_SIlver_Locket_Material_normal.png"
    }
  ],
  "materials": [
    {
      "alphaMode": "BLEND",
      "doubleSided": true,
      "name": "SMS_Medieval_SIlver_Locket_Material",
      "normalTexture": {
        "index": 2,
        "scale": 1,
        "texCoord": 0
      },
      "pbrMetallicRoughness": {
        "baseColorFactor": [
          1,
          1,
          1,
          1
        ],
        "baseColorTexture": {
          "index": 0,
          "texCoord": 0
        },
        "metallicFactor": 1,
        "metallicRoughnessTexture": {
          "index": 1,
          "texCoord": 0
        },
        "roughnessFactor": 1
      }
    }
  ],
  "meshes": [
    {
      "primitives": [
        {
          "attributes": {
            "NORMAL": 1,
            "POSITION": 0,
            "TANGENT": 2,
            "TEXCOORD_0": 3
          },
          "indices": 4,
          "material": 0,
          "mode": 4
        }
      ]
    }
  ],
  "nodes": [
    {
      "children": [
        1
      ],
      "name": "RootNode (gltf orientation matrix)",
      "rotation": [
        -0.70710678118654746,
        -0,
        -0,
        0.70710678118654757
      ]
    },
    {
      "children": [
        2
      ],
      "name": "RootNode (model correction matrix)"
    },
    {
      "children": [
        3
      ],
      "name": "SMS Medieval Silver Locket.obj.cleaner.materialmerger.gles"
    },
    {
      "mesh": 0,
      "name": ""
    }
  ],
  "samplers": [
    {
      "magFilter": 9729,
      "minFilter": 9987,
      "wrapS": 10497,
      "wrapT": 10497
    }
  ],
  "scene": 0,
  "scenes": [
    {
      "name": "OSG_Scene",
      "nodes": [
        0
      ]
    }
  ],
  "textures": [
    {
      "sampler": 0,
      "source": 0
    },
    {
      "sampler": 0,
      "source": 1
    },
    {
      "sampler": 0,
      "source": 2
    }
  ]
}

