{
  "accessors": [
    {
      "bufferView": 2,
      "componentType": 5126,
      "count": 65532,
      "max": [
        427.86669921875,
        130.00898742675781,
        737.43359375
      ],
      "min": [
        -254.78787231445312,
        -145.78768920898438,
        -744.87384033203125
      ],
      "type": "VEC3"
    },
    {
      "bufferView": 2,
      "byteOffset": 786384,
      "componentType": 5126,
      "count": 65532,
      "max": [
        1,
        1,
        1
      ],
      "min": [
        -1,
        -1,
        -1
      ],
      "type": "VEC3"
    },
    {
      "bufferView": 3,
      "componentType": 5126,
      "count": 65532,
      "max": [
        1,
        1,
        0.99999874830245972,
        1
      ],
      "min": [
        -1,
        -0.99999827146530151,
        -1,
        -1
      ],
      "type": "VEC4"
    },
    {
      "bufferView": 1,
      "componentType": 5126,
      "count": 65532,
      "max": [
        0.95634758472442627,
        0.98734360933303833
      ],
      "min": [
        0.0044446736574172974,
        0.012656306847929955
      ],
      "type": "VEC2"
    },
    {
      "bufferView": 1,
      "byteOffset": 524256,
      "componentType": 5126,
      "count": 65532,
      "max": [
        0.95634758472442627,
        0.98734360933303833
      ],
      "min": [
        0.0044446736574172974,
        0.012656306847929955
      ],
      "type": "VEC2"
    },
    {
      "bufferView": 1,
      "byteOffset": 1048512,
      "componentType": 5126,
      "count": 65532,
      "max": [
        0.95634758472442627,
        0.98734360933303833
      ],
      "min": [
        0.0044446736574172974,
        0.012656306847929955
      ],
      "type": "VEC2"
    },
    {
      "bufferView": 0,
      "componentType": 5125,
      "count": 319638,
      "max": [
        65531
      ],
      "min": [
        0
      ],
      "type": "SCALAR"
    },
    {
      "bufferView": 2,
      "byteOffset": 1572768,
      "componentType": 5126,
      "count": 583,
      "max": [
        241.97604370117188,
        -120.76551055908203,
        708.85455322265625
      ],
      "min": [
        -241.80743408203125,
        -125.49207305908203,
        253.48150634765625
      ],
      "type": "VEC3"
    },
    {
      "bufferView": 2,
      "byteOffset": 1579764,
      "componentType": 5126,
      "count": 583,
      "max": [
        1,
        1,
        0.88177019357681274
      ],
      "min": [
        -0.88409733772277832,
        -1,
        -1
      ],
      "type": "VEC3"
    },
    {
      "bufferView": 3,
      "byteOffset": 1048512,
      "componentType": 5126,
      "count": 583,
      "max": [
        0.57402420043945312,
        0.81671643257141113,
        0.0018579442985355854,
        1
      ],
      "min": [
        -0.43773949146270752,
        -0.99982148408889771,
        -0.99461561441421509,
        1
      ],
      "type": "VEC4"
    },
    {
      "bufferView": 1,
      "byteOffset": 1572768,
      "componentType": 5126,
      "count": 583,
      "max": [
        0.61802768707275391,
        0.83501207828521729
      ],
      "min": [
        0.03236696869134903,
        0.30615732073783875
      ],
      "type": "VEC2"
    },
    {
      "bufferView": 1,
      "byteOffset": 1577432,
      "componentType": 5126,
      "count": 583,
      "max": [
        0.61802768707275391,
        0.83501207828521729
      ],
      "min": [
        0.03236696869134903,
        0.30615732073783875
      ],
      "type": "VEC2"
    },
    {
      "bufferView": 1,
      "byteOffset": 1582096,
      "componentType": 5126,
      "count": 583,
      "max": [
        0.61802768707275391,
        0.83501207828521729
      ],
      "min": [
        0.03236696869134903,
        0.30615732073783875
      ],
      "type": "VEC2"
    },
    {
      "bufferView": 0,
      "byteOffset": 1278552,
      "componentType": 5125,
      "count": 2682,
      "max": [
        582
      ],
      "min": [
        0
      ],
      "type": "SCALAR"
    }
  ],
  "asset": {
    "extras": {
      "author": "shaderbytes (https://sketchfab.com/shaderbytes)",
      "license": "CC-BY-4.0 (http://creativecommons.org/licenses/by/4.0/)",
      "source": "https://sketchfab.com/3d-models/grinder-not-exact-to-any-model-f63c7b00346249489bedd9ced41fd536",
      "title": "Grinder - not exact to any model"
    },
    "generator": "Sketchfab-6.9.0",
    "version": "2.0"
  },
  "bufferViews": [
    {
      "buffer": 0,
      "byteLength": 1289280,
      "byteOffset": 0,
      "name": "floatBufferViews",
      "target": 34963
    },
    {
      "buffer": 0,
      "byteLength": 1586760,
      "byteOffset": 1289280,
      "byteStride": 8,
      "name": "floatBufferViews",
      "target": 34962
    },
    {
      "buffer": 0,
      "byteLength": 1586760,
      "byteOffset": 2876040,
      "byteStride": 12,
      "name": "floatBufferViews",
      "target": 34962
    },
    {
      "buffer": 0,
      "byteLength": 1057840,
      "byteOffset": 4462800,
      "byteStride": 16,
      "name": "floatBufferViews",
      "target": 34962
    }
  ],
  "buffers": [
    {
      "byteLength": 5520640,
      "uri": "scene.bin"
    }
  ],
  "images": [
    {
      "uri": "textures/grinder_combined_baseColor.jpeg"
    },
    {
      "uri": "textures/grinder_combined_metallicRoughness.png"
    },
    {
      "uri": "textures/grinder_combined_normal.jpeg"
    }
  ],
  "materials": [
    {
      "doubleSided": true,
      "emissiveFactor": [
        0,
        0,
        0
      ],
      "name": "grinder_combined",
      "normalTexture": {
        "index": 2,
        "scale": 1,
        "texCoord": 0
      },
      "pbrMetallicRoughness": {
        "baseColorFactor": [
          1,
          1,
          1,
          1
        ],
        "baseColorTexture": {
          "index": 0,
          "texCoord": 0
        },
        "metallicFactor": 1,
        "metallicRoughnessTexture": {
          "index": 1,
          "texCoord": 0
        },
        "roughnessFactor": 1
      }
    }
  ],
  "meshes": [
    {
      "name": "grinder_grinder_combined_0",
      "primitives": [
        {
          "attributes": {
            "NORMAL": 1,
            "POSITION": 0,
            "TANGENT": 2,
            "TEXCOORD_0": 3,
            "TEXCOORD_1": 4,
            "TEXCOORD_2": 5
          },
          "indices": 6,
          "material": 0,
          "mode": 4
        }
      ]
    },
    {
      "name": "grinder_grinder_combined_0",
      "primitives": [
        {
          "attributes": {
            "NORMAL": 8,
            "POSITION": 7,
            "TANGENT": 9,
            "TEXCOORD_0": 10,
            "TEXCOORD_1": 11,
            "TEXCOORD_2": 12
          },
          "indices": 13,
          "material": 0,
          "mode": 4
        }
      ]
    }
  ],
  "nodes": [
    {
      "children": [
        1
      ],
      "name": "RootNode (gltf orientation matrix)",
      "rotation": [
        -0.70710678118654746,
        -0,
        -0,
        0.70710678118654757
      ]
    },
    {
      "children": [
        2
      ],
      "name": "RootNode (model correction matrix)"
    },
    {
      "children": [
        3
      ],
      "matrix": [
        1,
        0,
        0,
        0,
        0,
        0,
        1,
        0,
        0,
        -1,
        0,
        0,
        0,
        0,
        0,
        1
      ],
      "name": "87492904421e4b77a6cef9fae6679101.fbx"
    },
    {
      "children": [
        4
      ],
      "name": "RootNode"
    },
    {
      "children": [
        5,
        6
      ],
      "name": "grinder"
    },
    {
      "mesh": 0,
      "name": "grinder_grinder_combined_0"
    },
    {
      "mesh": 1,
      "name": "grinder_grinder_combined_0"
    }
  ],
  "samplers": [
    {
      "magFilter": 9729,
      "minFilter": 9987,
      "wrapS": 10497,
      "wrapT": 10497
    }
  ],
  "scene": 0,
  "scenes": [
    {
      "name": "OSG_Scene",
      "nodes": [
        0
      ]
    }
  ],
  "textures": [
    {
      "sampler": 0,
      "source": 0
    },
    {
      "sampler": 0,
      "source": 1
    },
    {
      "sampler": 0,
      "source": 2
    }
  ]
}

