{
  "accessors": [
    {
      "bufferView": 2,
      "componentType": 5126,
      "count": 65532,
      "max": [
        160.26803588867188,
        -393.38397216796875,
        154.36672973632812
      ],
      "min": [
        -144.27182006835938,
        -668.3695068359375,
        -98.942428588867188
      ],
      "type": "VEC3"
    },
    {
      "bufferView": 2,
      "byteOffset": 786384,
      "componentType": 5126,
      "count": 65532,
      "max": [
        0.84064888954162598,
        0.99999761581420898,
        0.93871599435806274
      ],
      "min": [
        -0.91540586948394775,
        -0.99998748302459717,
        -1
      ],
      "type": "VEC3"
    },
    {
      "bufferView": 3,
      "componentType": 5126,
      "count": 65532,
      "max": [
        0.39305439591407776,
        0.93025624752044678,
        1,
        1
      ],
      "min": [
        -0.52138876914978027,
        -1,
        -1,
        1
      ],
      "type": "VEC4"
    },
    {
      "bufferView": 1,
      "componentType": 5126,
      "count": 65532,
      "max": [
        0.99800801277160645,
        0.81266999244689941
      ],
      "min": [
        0.22825199365615845,
        0.0020649998914450407
      ],
      "type": "VEC2"
    },
    {
      "bufferView": 0,
      "componentType": 5125,
      "count": 378765,
      "max": [
        65531
      ],
      "min": [
        0
      ],
      "type": "SCALAR"
    },
    {
      "bufferView": 2,
      "byteOffset": 1572768,
      "componentType": 5126,
      "count": 65532,
      "max": [
        166.18766784667969,
        -392.3717041015625,
        174.25973510742188
      ],
      "min": [
        -140.16758728027344,
        -700.4869384765625,
        -107.45781707763672
      ],
      "type": "VEC3"
    },
    {
      "bufferView": 2,
      "byteOffset": 2359152,
      "componentType": 5126,
      "count": 65532,
      "max": [
        0.9999997615814209,
        0.99999988079071045,
        0.99999713897705078
      ],
      "min": [
        -0.998005211353302,
        -0.99997550249099731,
        -1
      ],
      "type": "VEC3"
    },
    {
      "bufferView": 3,
      "byteOffset": 1048512,
      "componentType": 5126,
      "count": 65532,
      "max": [
        0.99999988079071045,
        1,
        1,
        1
      ],
      "min": [
        -0.99721932411193848,
        -1,
        -1,
        1
      ],
      "type": "VEC4"
    },
    {
      "bufferView": 1,
      "byteOffset": 524256,
      "componentType": 5126,
      "count": 65532,
      "max": [
        0.99138200283050537,
        0.86341601610183716
      ],
      "min": [
        0.018727000802755356,
        0.001791000016964972
      ],
      "type": "VEC2"
    },
    {
      "bufferView": 0,
      "byteOffset": 1515060,
      "componentType": 5125,
      "count": 372495,
      "max": [
        65531
      ],
      "min": [
        0
      ],
      "type": "SCALAR"
    },
    {
      "bufferView": 2,
      "byteOffset": 3145536,
      "componentType": 5126,
      "count": 65532,
      "max": [
        150.08406066894531,
        -392.6396484375,
        161.5823974609375
      ],
      "min": [
        -147.41827392578125,
        -567.6805419921875,
        -98.377372741699219
      ],
      "type": "VEC3"
    },
    {
      "bufferView": 2,
      "byteOffset": 3931920,
      "componentType": 5126,
      "count": 65532,
      "max": [
        0.99907749891281128,
        0.99999988079071045,
        1
      ],
      "min": [
        -0.99978721141815186,
        -0.85149127244949341,
        -0.99955374002456665
      ],
      "type": "VEC3"
    },
    {
      "bufferView": 3,
      "byteOffset": 2097024,
      "componentType": 5126,
      "count": 65532,
      "max": [
        0.94148832559585571,
        1,
        0.88803738355636597,
        1
      ],
      "min": [
        -0.98494827747344971,
        -0.99999821186065674,
        -1,
        1
      ],
      "type": "VEC4"
    },
    {
      "bufferView": 1,
      "byteOffset": 1048512,
      "componentType": 5126,
      "count": 65532,
      "max": [
        0.91479998826980591,
        0.8634600043296814
      ],
      "min": [
        0.0019920000340789557,
        0.001791000016964972
      ],
      "type": "VEC2"
    },
    {
      "bufferView": 0,
      "byteOffset": 3005040,
      "componentType": 5125,
      "count": 377889,
      "max": [
        65531
      ],
      "min": [
        0
      ],
      "type": "SCALAR"
    },
    {
      "bufferView": 2,
      "byteOffset": 4718304,
      "componentType": 5126,
      "count": 65532,
      "max": [
        171.27174377441406,
        -393.34902954101562,
        164.79345703125
      ],
      "min": [
        -157.26028442382812,
        -700.4649658203125,
        -97.223258972167969
      ],
      "type": "VEC3"
    },
    {
      "bufferView": 2,
      "byteOffset": 5504688,
      "componentType": 5126,
      "count": 65532,
      "max": [
        0.99999862909317017,
        0.99999946355819702,
        0.9999997615814209
      ],
      "min": [
        -0.99999678134918213,
        -0.99974513053894043,
        -0.99991190433502197
      ],
      "type": "VEC3"
    },
    {
      "bufferView": 3,
      "byteOffset": 3145536,
      "componentType": 5126,
      "count": 65532,
      "max": [
        0.99915182590484619,
        1,
        1,
        1
      ],
      "min": [
        -0.99948573112487793,
        -1,
        -1,
        1
      ],
      "type": "VEC4"
    },
    {
      "bufferView": 1,
      "byteOffset": 1572768,
      "componentType": 5126,
      "count": 65532,
      "max": [
        0.98209899663925171,
        0.89225500822067261
      ],
      "min": [
        0.0019920000340789557,
        0.001791000016964972
      ],
      "type": "VEC2"
    },
    {
      "bufferView": 0,
      "byteOffset": 4516596,
      "componentType": 5125,
      "count": 364275,
      "max": [
        65531
      ],
      "min": [
        0
      ],
      "type": "SCALAR"
    },
    {
      "bufferView": 2,
      "byteOffset": 6291072,
      "componentType": 5126,
      "count": 65532,
      "max": [
        170.32481384277344,
        -395.92367553710938,
        174.69151306152344
      ],
      "min": [
        -156.43229675292969,
        -698.15887451171875,
        -106.51126098632812
      ],
      "type": "VEC3"
    },
    {
      "bufferView": 2,
      "byteOffset": 7077456,
      "componentType": 5126,
      "count": 65532,
      "max": [
        0.99996185302734375,
        0.99999850988388062,
        1
      ],
      "min": [
        -0.9999881386756897,
        -0.9999997615814209,
        -0.99998354911804199
      ],
      "type": "VEC3"
    },
    {
      "bufferView": 3,
      "byteOffset": 4194048,
      "componentType": 5126,
      "count": 65532,
      "max": [
        1,
        1,
        1,
        1
      ],
      "min": [
        -0.9957200288772583,
        -1,
        -1,
        -1
      ],
      "type": "VEC4"
    },
    {
      "bufferView": 1,
      "byteOffset": 2097024,
      "componentType": 5126,
      "count": 65532,
      "max": [
        0.99454998970031738,
        0.89718598127365112
      ],
      "min": [
        0.0019920000340789557,
        0.0052550002001225948
      ],
      "type": "VEC2"
    },
    {
      "bufferView": 0,
      "byteOffset": 5973696,
      "componentType": 5125,
      "count": 348666,
      "max": [
        65531
      ],
      "min": [
        0
      ],
      "type": "SCALAR"
    },
    {
      "bufferView": 2,
      "byteOffset": 7863840,
      "componentType": 5126,
      "count": 65532,
      "max": [
        170.80441284179688,
        -400.05670166015625,
        174.92912292480469
      ],
      "min": [
        -157.19502258300781,
        -696.6253662109375,
        -106.920166015625
      ],
      "type": "VEC3"
    },
    {
      "bufferView": 2,
      "byteOffset": 8650224,
      "componentType": 5126,
      "count": 65532,
      "max": [
        0.99997413158416748,
        0.99999850988388062,
        0.99999964237213135
      ],
      "min": [
        -0.99999988079071045,
        -0.99997866153717041,
        -0.99999946355819702
      ],
      "type": "VEC3"
    },
    {
      "bufferView": 3,
      "byteOffset": 5242560,
      "componentType": 5126,
      "count": 65532,
      "max": [
        1,
        1,
        1,
        1
      ],
      "min": [
        -0.99968475103378296,
        -1,
        -1,
        -1
      ],
      "type": "VEC4"
    },
    {
      "bufferView": 1,
      "byteOffset": 2621280,
      "componentType": 5126,
      "count": 65532,
      "max": [
        0.99800801277160645,
        0.89718401432037354
      ],
      "min": [
        0.0026469998992979527,
        0.0053989998996257782
      ],
      "type": "VEC2"
    },
    {
      "bufferView": 0,
      "byteOffset": 7368360,
      "componentType": 5125,
      "count": 331533,
      "max": [
        65531
      ],
      "min": [
        0
      ],
      "type": "SCALAR"
    },
    {
      "bufferView": 2,
      "byteOffset": 9436608,
      "componentType": 5126,
      "count": 40170,
      "max": [
        171.13520812988281,
        -415.77053833007812,
        174.81852722167969
      ],
      "min": [
        -156.92584228515625,
        -700.19720458984375,
        -107.60190582275391
      ],
      "type": "VEC3"
    },
    {
      "bufferView": 2,
      "byteOffset": 9918648,
      "componentType": 5126,
      "count": 40170,
      "max": [
        0.99995452165603638,
        0.99998033046722412,
        0.9999997615814209
      ],
      "min": [
        -0.99992865324020386,
        -0.99999690055847168,
        -0.99999874830245972
      ],
      "type": "VEC3"
    },
    {
      "bufferView": 3,
      "byteOffset": 6291072,
      "componentType": 5126,
      "count": 40170,
      "max": [
        1,
        1,
        1,
        1
      ],
      "min": [
        -0.99924439191818237,
        -1,
        -1,
        -1
      ],
      "type": "VEC4"
    },
    {
      "bufferView": 1,
      "byteOffset": 3145536,
      "componentType": 5126,
      "count": 40170,
      "max": [
        0.99800801277160645,
        0.89718598127365112
      ],
      "min": [
        0.0019920000340789557,
        0.0023930000606924295
      ],
      "type": "VEC2"
    },
    {
      "bufferView": 0,
      "byteOffset": 8694492,
      "componentType": 5125,
      "count": 150225,
      "max": [
        40169
      ],
      "min": [
        0
      ],
      "type": "SCALAR"
    }
  ],
  "asset": {
    "extras": {
      "author": "IUPUI Center for Digital Scholarship (https://sketchfab.com/iupuicds)",
      "license": "CC-BY-4.0 (http://creativecommons.org/licenses/by/4.0/)",
      "source": "https://sketchfab.com/3d-models/emergency-medical-services-box-c63c74e3cefa48e787912477889f738e",
      "title": "Emergency Medical Services Box"
    },
    "generator": "Sketchfab-5.54.1",
    "version": "2.0"
  },
  "bufferViews": [
    {
      "buffer": 0,
      "byteLength": 9295392,
      "byteOffset": 0,
      "name": "floatBufferViews",
      "target": 34963
    },
    {
      "buffer": 0,
      "byteLength": 3466896,
      "byteOffset": 9295392,
      "byteStride": 8,
      "name": "floatBufferViews",
      "target": 34962
    },
    {
      "buffer": 0,
      "byteLength": 10400688,
      "byteOffset": 12762288,
      "byteStride": 12,
      "name": "floatBufferViews",
      "target": 34962
    },
    {
      "buffer": 0,
      "byteLength": 6933792,
      "byteOffset": 23162976,
      "byteStride": 16,
      "name": "floatBufferViews",
      "target": 34962
    }
  ],
  "buffers": [
    {
      "byteLength": 30096768,
      "uri": "scene.bin"
    }
  ],
  "images": [
    {
      "uri": "textures/material_0_baseColor.png"
    }
  ],
  "materials": [
    {
      "doubleSided": true,
      "name": "material_0",
      "pbrMetallicRoughness": {
        "baseColorFactor": [
          1,
          1,
          1,
          1
        ],
        "baseColorTexture": {
          "index": 0,
          "texCoord": 0
        },
        "metallicFactor": 0.20903201220000001,
        "roughnessFactor": 0.50171493899999997
      }
    }
  ],
  "meshes": [
    {
      "primitives": [
        {
          "attributes": {
            "NORMAL": 1,
            "POSITION": 0,
            "TANGENT": 2,
            "TEXCOORD_0": 3
          },
          "indices": 4,
          "material": 0,
          "mode": 4
        }
      ]
    },
    {
      "primitives": [
        {
          "attributes": {
            "NORMAL": 6,
            "POSITION": 5,
            "TANGENT": 7,
            "TEXCOORD_0": 8
          },
          "indices": 9,
          "material": 0,
          "mode": 4
        }
      ]
    },
    {
      "primitives": [
        {
          "attributes": {
            "NORMAL": 11,
            "POSITION": 10,
            "TANGENT": 12,
            "TEXCOORD_0": 13
          },
          "indices": 14,
          "material": 0,
          "mode": 4
        }
      ]
    },
    {
      "primitives": [
        {
          "attributes": {
            "NORMAL": 16,
            "POSITION": 15,
            "TANGENT": 17,
            "TEXCOORD_0": 18
          },
          "indices": 19,
          "material": 0,
          "mode": 4
        }
      ]
    },
    {
      "primitives": [
        {
          "attributes": {
            "NORMAL": 21,
            "POSITION": 20,
            "TANGENT": 22,
            "TEXCOORD_0": 23
          },
          "indices": 24,
          "material": 0,
          "mode": 4
        }
      ]
    },
    {
      "primitives": [
        {
          "attributes": {
            "NORMAL": 26,
            "POSITION": 25,
            "TANGENT": 27,
            "TEXCOORD_0": 28
          },
          "indices": 29,
          "material": 0,
          "mode": 4
        }
      ]
    },
    {
      "primitives": [
        {
          "attributes": {
            "NORMAL": 31,
            "POSITION": 30,
            "TANGENT": 32,
            "TEXCOORD_0": 33
          },
          "indices": 34,
          "material": 0,
          "mode": 4
        }
      ]
    }
  ],
  "nodes": [
    {
      "children": [
        1
      ],
      "name": "RootNode (gltf orientation matrix)",
      "rotation": [
        -0.70710678118654746,
        -0,
        -0,
        0.70710678118654757
      ]
    },
    {
      "children": [
        2
      ],
      "matrix": [
        0.9966776967048645,
        0.0004414822906255722,
        0.081445425748825073,
        0,
        0.081440083682537079,
        0.0072716628201305866,
        -0.99665170907974243,
        0,
        -0.0010322477901354432,
        0.99997347593307495,
        0.0072115496732294559,
        0,
        44.559276580810547,
        -576.1217041015625,
        -511.74954223632812,
        1
      ],
      "name": "RootNode (model correction matrix)"
    },
    {
      "children": [
        3,
        4,
        5,
        6,
        7,
        8,
        9
      ],
      "name": "IFD_FirstAidKit_HR_Geometry.obj.cleaner.materialmerger.gles"
    },
    {
      "mesh": 0,
      "name": ""
    },
    {
      "mesh": 1,
      "name": ""
    },
    {
      "mesh": 2,
      "name": ""
    },
    {
      "mesh": 3,
      "name": ""
    },
    {
      "mesh": 4,
      "name": ""
    },
    {
      "mesh": 5,
      "name": ""
    },
    {
      "mesh": 6,
      "name": ""
    }
  ],
  "samplers": [
    {
      "magFilter": 9729,
      "minFilter": 9987,
      "wrapS": 10497,
      "wrapT": 10497
    }
  ],
  "scene": 0,
  "scenes": [
    {
      "name": "OSG_Scene",
      "nodes": [
        0
      ]
    }
  ],
  "textures": [
    {
      "sampler": 0,
      "source": 0
    }
  ]
}

